<svg width="839" height="737" viewBox="0 0 839 737" fill="none" xmlns="http://www.w3.org/2000/svg">
<path d="M419.5 735.145C650.079 735.145 837 571.025 837 368.572C837 166.12 650.079 2 419.5 2C188.921 2 2 166.12 2 368.572C2 571.025 188.921 735.145 419.5 735.145Z" stroke="#BBCDE5" stroke-width="3" stroke-miterlimit="10" stroke-linecap="round" stroke-linejoin="round"/>
<path d="M419.5 735.145C572.433 735.145 696.41 571.025 696.41 368.572C696.41 166.12 572.433 2 419.5 2C266.567 2 142.59 166.12 142.59 368.572C142.59 571.025 266.567 735.145 419.5 735.145Z" stroke="#BBCDE5" stroke-width="3" stroke-miterlimit="10" stroke-linecap="round" stroke-linejoin="round"/>
<path d="M419.5 735.145C473.614 735.145 517.482 571.025 517.482 368.572C517.482 166.12 473.614 2 419.5 2C365.386 2 321.519 166.12 321.519 368.572C321.519 571.025 365.386 735.145 419.5 735.145Z" stroke="#BBCDE5" stroke-width="3" stroke-miterlimit="10" stroke-linecap="round" stroke-linejoin="round"/>
<path d="M419.5 486.977C650.079 486.977 837 433.965 837 368.573C837 303.18 650.079 250.168 419.5 250.168C188.922 250.168 2.00049 303.18 2.00049 368.573C2.00049 433.965 188.922 486.977 419.5 486.977Z" stroke="#BBCDE5" stroke-width="3" stroke-miterlimit="10" stroke-linecap="round" stroke-linejoin="round"/>
</svg>
