
<svg version="1.0" xmlns="http://www.w3.org/2000/svg"
 width="700.000000pt" height="700.000000pt" viewBox="0 0 700.000000 700.000000"
 preserveAspectRatio="xMidYMid meet">

<g transform="translate(0.000000,700.000000) scale(0.100000,-0.100000)"
fill="#000000" stroke="none">
<path d="M2165 5431 c-90 -41 -105 -84 -105 -296 l0 -165 -168 0 c-154 0 -171
-2 -212 -22 -132 -67 -132 -249 0 -315 41 -21 58 -23 212 -23 l168 0 0 -168
c0 -154 2 -171 23 -212 66 -132 248 -132 315 0 20 41 22 58 22 212 l0 168 168
0 c154 0 171 2 212 23 132 66 132 248 0 315 -41 20 -58 22 -212 22 l-168 0 0
168 c-1 214 -16 256 -113 297 -48 20 -93 19 -142 -4z"/>
<path d="M1265 3931 c-48 -22 -69 -44 -90 -94 -13 -32 -15 -164 -15 -1090 l0
-1053 23 -44 c66 -132 248 -132 315 0 21 42 22 56 22 272 l0 228 1980 0 1980
0 0 -228 c0 -216 1 -230 23 -272 66 -132 248 -132 315 0 l22 44 0 756 0 756
-22 44 c-67 132 -249 132 -315 0 -23 -43 -23 -51 -23 -392 l0 -348 -1980 0
-1980 0 0 648 c0 606 -2 650 -19 687 -22 48 -44 69 -94 90 -48 20 -93 19 -142
-4z"/>
<path d="M1740 3148 c-132 -67 -132 -249 0 -315 42 -22 55 -23 290 -23 235 0
248 1 290 23 132 66 132 248 0 315 -42 21 -55 22 -290 22 -235 0 -248 -1 -290
-22z"/>
<path d="M2640 3148 c-132 -67 -132 -249 0 -315 l44 -23 1266 0 1266 0 44 23
c132 66 132 248 0 315 l-44 22 -1266 0 -1266 0 -44 -22z"/>
</g>
</svg>
