
<svg version="1.0" xmlns="http://www.w3.org/2000/svg"
 width="700.000000pt" height="700.000000pt" viewBox="0 0 700.000000 700.000000"
 preserveAspectRatio="xMidYMid meet">

<g transform="translate(0.000000,700.000000) scale(0.100000,-0.100000)"
fill="#000000" stroke="none">
<path d="M3286 6395 c-466 -96 -822 -465 -896 -927 -18 -111 -8 -351 18 -450
116 -431 456 -752 885 -833 103 -19 311 -19 414 0 451 86 812 447 898 898 19
103 19 311 0 414 -81 429 -401 768 -833 885 -101 27 -381 35 -486 13z m362
-371 c463 -95 725 -589 543 -1024 -53 -127 -156 -252 -274 -332 -114 -78 -226
-115 -377 -125 -367 -24 -699 233 -774 599 -107 521 361 989 882 882z"/>
<path d="M2585 3775 c-187 -34 -340 -113 -480 -246 -131 -125 -224 -287 -273
-477 -15 -59 -17 -126 -17 -572 0 -492 1 -507 23 -594 81 -321 318 -577 622
-674 149 -48 137 -47 1040 -47 903 0 891 -1 1040 47 304 97 541 354 622 674
22 87 23 103 23 589 0 429 -2 510 -16 570 -44 187 -140 357 -274 484 -119 113
-247 186 -410 232 l-80 23 -875 2 c-687 2 -890 0 -945 -11z m1810 -380 c147
-39 293 -159 358 -295 19 -41 40 -99 46 -128 7 -34 11 -215 11 -500 0 -498 -1
-509 -67 -634 -64 -123 -168 -211 -312 -267 l-66 -26 -825 -3 c-568 -2 -845 1
-890 8 -158 27 -317 143 -393 287 -66 126 -67 136 -67 635 0 285 4 466 11 500
38 186 188 350 378 415 l66 22 845 1 c728 0 854 -2 905 -15z"/>
</g>
</svg>
